<?xml version="1.0" encoding="UTF-8"?>
<svg id="Camada_1" data-name="Camada 1" xmlns="http://www.w3.org/2000/svg" viewBox="0 0 1080 1080">
  <defs>
    <style>
      .cls-1 {
        fill: #5b5323;
      }

      .cls-2 {
        fill: #cfc4b2;
      }
    </style>
  </defs>
  <rect class="cls-1" x="0" width="1080" height="1080"/>
  <g>
    <g>
      <path class="cls-2" d="M158.07,670.48l-28.59-55.01c-1.74-3.31-3.84-2.79-3.84-4.53,0-1.4,1.22-1.57,1.83-1.57h11.25c2.09,0,3.05,0,3.05,1.65,0,2.01-3.14.78-1.22,4.36l17.96,34.18c.87,1.4,1.57,1.22,2.09.35l13.08-25.11c1.92-3.75,1.92-6.54,1.57-8.98-.53-4.01-3.49-2.79-3.49-5.05,0-1.4,1.05-1.4,2.09-1.4h10.9c1.4,0,2.44.26,2.44,1.22,0,2.36-1.92.78-1.48,4.53.35,2.71-.35,8.63-3.49,14.21l-21.19,41.23c-.52,1.05-2.35,1.05-2.96-.09Z"/>
      <path class="cls-2" d="M200.27,668.83c0-1.48,3.14-1.74,3.14-5.93v-46.55c0-4.54-2.53-4.1-2.53-5.67,0-1.31,1.74-1.31,2.71-1.31h9.59c.61,0,3.05-.26,3.05,1.31,0,1.4-3.14,1.05-3.14,5.67v46.55c0,4.62,3.23,4.36,3.23,6.28,0,1.22-2.53,1.22-3.14,1.22h-9.85c-1.83,0-3.05-.09-3.05-1.57Z"/>
      <path class="cls-2" d="M234.62,669c0-2.27,3.31-1.22,3.31-5.32v-47.43c0-5.23-3.14-3.66-3.14-5.4,0-1.05,1.05-1.48,2.96-1.48h9.76c1.92,0,3.23.17,3.23,1.48,0,1.4-2.88,1.05-2.88,4.97v43.77c0,1.92.7,2.09,1.74,2.09h23.45c3.49,0,4.1-2.27,5.84-1.22.7.44.44,2.18,0,2.88l-3.66,5.84c-.7,1.13-1.4,1.22-2.18,1.22h-35.31c-2,0-3.14-.09-3.14-1.4Z"/>
      <path class="cls-2" d="M292.43,669c0-2.27,3.31-1.22,3.31-5.32v-47.43c0-5.23-3.14-3.66-3.14-5.4,0-1.05,1.05-1.48,2.96-1.48h9.76c1.92,0,3.23.17,3.23,1.48,0,1.4-2.88,1.05-2.88,4.97v43.77c0,1.92.7,2.09,1.74,2.09h23.45c3.49,0,4.1-2.27,5.84-1.22.7.44.44,2.18,0,2.88l-3.66,5.84c-.7,1.13-1.4,1.22-2.18,1.22h-35.31c-2,0-3.14-.09-3.14-1.4Z"/>
      <path class="cls-2" d="M348.49,668.74c0-2.18,2.96-1.4,4.27-5.23l16.57-47.77c1.05-3.14-1.22-3.05-1.22-4.71,0-1.22.78-1.65,2.09-1.65h12.82c1.4,0,2.18.44,2.18,1.65,0,1.92-2.88,1.66-1.66,4.71l18.66,48.21c1.31,3.4,3.84,2.79,3.84,4.8,0,1.48-.87,1.65-3.31,1.65h-10.46c-2.01,0-2.88-.17-2.88-1.48,0-2.53,3.05-1.48,2-4.45l-1.57-4.36c-.44-1.22-1.13-1.39-2.27-1.39h-21.1c-.87,0-1.92.26-2.35,1.22l-.78,3.05c-1.31,5.06,1.31,2.96,1.31,5.93,0,1.31-1.31,1.48-3.83,1.48h-9.85c-1.22,0-2.44-.26-2.44-1.65ZM384.93,650.08c1.05,0,1.22-.96.87-1.92l-8.63-24.06c-.35-.96-1.13-.87-1.4-.09l-8.45,24.5c-.35,1.05.17,1.57,1.22,1.57h16.39Z"/>
      <path class="cls-2" d="M454.34,668.74c0-2.18,3.22-.96,3.22-6.11v-46.38c0-4.36-3.57-3.31-3.57-5.23,0-1.48,1.22-1.65,3.57-1.65h26.16c10.46,0,17.78,5.93,17.78,15.87,0,6.1-2.96,9.33-4.53,10.63-.52.44-.61,1.13.18,1.48,2.53,1.13,8.28,5.23,8.28,14.82s-5.58,18.22-17.44,18.22h-29.38c-1.48,0-4.27,0-4.27-1.65ZM485.89,661.85c5.58,0,9.68-3.58,9.68-9.68,0-6.98-5.67-8.72-10.81-8.72h-15.78c-.7,0-1.57.17-1.57,1.39l-.09,14.91c0,1.4.17,2.09,1.83,2.09h16.73ZM484.15,634.83c3.83,0,7.67-3.4,7.67-8.63s-3.66-7.93-8.1-7.93h-13.95c-1.22,0-2.09.26-2.09,1.83l-.18,12.73c0,1.31.44,2,1.92,2h14.74Z"/>
      <path class="cls-2" d="M521.13,668.83c0-1.48,3.14-1.74,3.14-5.93v-46.55c0-4.54-2.53-4.1-2.53-5.67,0-1.31,1.74-1.31,2.71-1.31h9.59c.61,0,3.05-.26,3.05,1.31,0,1.4-3.14,1.05-3.14,5.67v46.55c0,4.62,3.23,4.36,3.23,6.28,0,1.22-2.53,1.22-3.14,1.22h-9.85c-1.83,0-3.05-.09-3.05-1.57Z"/>
      <path class="cls-2" d="M551.99,639.53c0-17.26,11.94-31.3,31.65-31.3,9.76,0,14.82,2.62,18.05,5.05,2.09,1.57,3.75-.52,4.97.44,1.05.78.17,2.35-.7,3.75l-3.66,5.67c-.78,1.22-1.48,2-2.79,1.31-.96-.52-.44-2-2.18-3.57-2.88-2.53-6.71-3.75-13.69-3.75-12.46,0-21.36,9.5-21.36,22.4s9.07,23.1,20.66,23.1c8.46,0,12.38-2.35,14.39-4.36,2.53-2.52.52-3.22,1.65-4.36.78-.78,1.74-.7,2.44.17l6.28,7.32c.61.7.78,1.4,0,2.18-.87.87-1.57-.44-4.53,1.65-3.05,2.18-8.11,6.45-20.23,6.45-18.13,0-30.95-14.82-30.95-32.17Z"/>
      <path class="cls-2" d="M622.18,669.09c0-1.83,3.57-1.83,3.57-5.75l.09-47.69c0-4.18-3.05-2.27-3.05-4.97,0-1.04.87-1.31,3.84-1.31h10.63c1.4,0,2.79.09,2.79,1.31,0,1.92-3.49,1.4-3.49,4.97v15.78c0,2.62,1.31,2.88,2.96,2.96l27.38-.09c1.48,0,2.79-.18,2.79-2.53v-16.21c0-3.75-3.31-2.88-3.31-4.89,0-1.13,1.57-1.31,4.71-1.31h8.72c1.92,0,3.49.17,3.49,1.31,0,1.83-3.23,1.57-3.23,4.62v48.73c0,3.49,3.58,3.14,3.58,4.8,0,1.48-1.65,1.57-4.62,1.57h-10.2c-.78,0-2.7-.09-2.7-1.05,0-1.83,3.66-1.83,3.66-5.49l-.35-17.17c0-1.83-.87-2.53-2.09-2.53h-28.33c-1.31,0-2.53.44-2.53,1.4v17.79c0,4.71,3.92,3.49,3.92,5.75,0,1.22-1.92,1.31-4.1,1.31h-10.81c-2.36,0-3.31-.17-3.31-1.31Z"/>
      <path class="cls-2" d="M701.96,668.83c0-1.48,3.14-1.74,3.14-5.93v-46.55c0-4.54-2.53-4.1-2.53-5.67,0-1.31,1.74-1.31,2.71-1.31h9.59c.61,0,3.05-.26,3.05,1.31,0,1.4-3.14,1.05-3.14,5.67v46.55c0,4.62,3.23,4.36,3.23,6.28,0,1.22-2.53,1.22-3.14,1.22h-9.85c-1.83,0-3.05-.09-3.05-1.57ZM705.01,591.63c0-2.7,2.27-5.32,5.23-5.32,3.14,0,5.14,2.09,5.14,5.32s-2.36,5.32-5.14,5.32-5.23-2.35-5.23-5.32Z"/>
      <path class="cls-2" d="M736.31,669.18c0-2.36,3.49-1.13,3.31-6.45v-45.86c-.09-5.32-3.05-4.27-3.05-6.19,0-1.22,1.13-1.31,3.92-1.31h6.19c1.65,0,2.52.7,2.52,2.27v6.1c0,1.57.61,2.01,1.74,3.14l31.12,26.76c1.13,1.05,2.18.78,2.18-1.22v-28.16c0-6.89-3.14-5.14-3.14-7.41,0-1.48,1.4-1.48,5.14-1.48h5.93c3.23,0,4.97.17,4.97,1.65,0,2.18-3.14.61-3.14,6.71v46.03c0,3.4,2.79,2.88,2.79,5.14,0,1.48-1.57,1.48-2.7,1.48h-8.19c-1.22,0-1.65-.96-1.65-2.09v-4.62c0-.96-.7-2.27-1.83-3.4l-30.51-25.89c-1.57-1.31-2.62-.87-2.62,1.13v27.38c0,5.49,3.66,3.83,3.66,6.28,0,1.39-.96,1.22-3.22,1.22h-10.2c-1.74,0-3.22,0-3.22-1.22Z"/>
      <path class="cls-2" d="M815.48,669.09c0-1.83,3.57-1.83,3.57-5.75l.09-47.69c0-4.18-3.05-2.27-3.05-4.97,0-1.04.87-1.31,3.84-1.31h10.63c1.4,0,2.79.09,2.79,1.31,0,1.92-3.49,1.4-3.49,4.97v15.78c0,2.62,1.31,2.88,2.96,2.96l27.38-.09c1.48,0,2.79-.18,2.79-2.53v-16.21c0-3.75-3.31-2.88-3.31-4.89,0-1.13,1.57-1.31,4.71-1.31h8.72c1.92,0,3.49.17,3.49,1.31,0,1.83-3.23,1.57-3.23,4.62v48.73c0,3.49,3.58,3.14,3.58,4.8,0,1.48-1.66,1.57-4.62,1.57h-10.2c-.78,0-2.7-.09-2.7-1.05,0-1.83,3.66-1.83,3.66-5.49l-.35-17.17c0-1.83-.87-2.53-2.09-2.53h-28.33c-1.31,0-2.53.44-2.53,1.4v17.79c0,4.71,3.92,3.49,3.92,5.75,0,1.22-1.92,1.31-4.1,1.31h-10.81c-2.36,0-3.31-.17-3.31-1.31Z"/>
      <path class="cls-2" d="M923.5,608.06c15.52.18,30.86,10.72,30.86,32.17s-16.04,31.91-31.9,31.65c-15.43-.26-30.69-10.72-30.69-31.65s15.95-32.26,31.73-32.17ZM922.8,662.64c10.64.18,21.36-7.32,21.36-22.4s-10.37-22.75-20.75-22.84c-10.55-.09-21.19,7.5-21.19,22.84s10.2,22.23,20.57,22.4Z"/>
    </g>
    <path class="cls-2" d="M586.26,348.54c.22.11.43.24.63.37,6.58,4.21,39.53-17.63,45.17-12.12,3.09,3.02,7.2,2.59,11.26,3.3,4.24.6,6.93,3.27,10.19,6.14,4.75,4.18,10.11,5.31,11.76,5.98,12.43,5.03,16.62-1.98,29.57,2.1,3.46,1.09,12.94,4.08,17.96,12.41,2.41,4.01,2.08,6.42,5.02,8.65,4.42,3.35,8.13.01,17.24,1.35,7.76,1.14,13.27,4.44,20.46,6.83,4.32,1.48,8.81,2.18,13.29,2.93,8.99,1.42,17.04,4.85,25.82,7.27.73.24,1.45.5,2.07.81,1.26.62,1.79,1.3,1.21,1.6-.38.22-1.18.2-2.22.06-6.88-1.18-13.49-3.74-20.25-5.46-7.6-2.03-14.9-2.69-22.34-5.28-8.15-2.83-16.65-4.62-25.25-5.29-6.54-.51-13.39-.45-19.19-3.51-4.48-2.37-7.97-6.45-12.69-8.33-4.45-1.77-9.41-1.36-14.2-1.61-9.46-.51-18.75-3.84-26.38-9.45-5.77-4.24-15.11-14.31-23.07-10.86-2.16-.36-5.88-.84-10.47-.7-19.81.61-37,12.27-37.71,10.89,0,0,0,0-.01-.03-1.08-2.76-4.53-6.89-10.07-7.58-.19-.02-.32-.04-.42-.04-1.04-.07-3.06.09-8.9,1.95-3.44,1.09-5.17,1.64-8.32,2.97-3.6,1.52-14.28,6.03-24.36,6.54-3.07.16-5.15-.06-9.03-.46-5.99-.61-11.26-1.73-23.55-5.41-24.77-7.42-27.63-10.17-29.23-13.04-.84-1.5-1.68-3.66-4.07-5.88-.89-.82-4.38-3.87-11.29-4.75-10.65-1.36-21.16,3.48-26.41,5.84-10.9,4.91-22.32,8.62-33.19,13.61-13.03,5.98-26.43,11.1-39.81,16.22-24.04,9.19-48.27,18.44-73.66,22.67,10.95-5.99,22.48-10.94,34.36-14.76,10.66-3.43,22.15-4.74,31.34-11.64,1.89-1.42,3.8-2.71,6-3.64,13.6-5.8,28.76-6.44,41.99-13.19,6.03-3.02,13.93-7.52,19.87-10.23,4.01-1.71,9.11-5.18,13.98-5.34,5.47-.21,10.2-3.64,15.87-3.06,2.83.03,4.49-2.36,6.64-3.81,9.2-6.23,51.3,28.37,61.89,25.97,13.4-3.03,26.24-6.67,39.23-11,6.26-2.08,13.68-2.86,18.99,1.05,2.57,1.89,4.4,4.73,7.19,6.28,2.21,1.22,4.84,1.53,7.06,2.7Z"/>
    <g>
      <path class="cls-2" d="M346.27,754.86v-22.96h6.05c1.19,0,2.1.06,2.74.19,1.53.32,2.73,1.06,3.6,2.21.87,1.16,1.3,2.59,1.3,4.28,0,1.02-.16,1.94-.48,2.75-.32.82-.77,1.51-1.35,2.09s-1.3,1.01-2.15,1.32c-.85.31-1.8.46-2.86.46h-3.15v9.65h-3.7ZM349.97,734.96v7.2h2.16c1.31,0,2.34-.32,3.06-.97s1.08-1.56,1.08-2.72-.35-2.02-1.04-2.61-1.7-.89-3.04-.89h-2.23Z"/>
      <path class="cls-2" d="M367.54,743.39c0-1.7.3-3.27.91-4.73.61-1.45,1.44-2.72,2.52-3.79,1.07-1.07,2.34-1.92,3.81-2.53,1.47-.62,3.05-.92,4.75-.92s3.32.31,4.78.92c1.47.62,2.74,1.46,3.81,2.53,1.07,1.07,1.91,2.34,2.52,3.79s.91,3.03.91,4.73-.3,3.28-.91,4.74c-.61,1.47-1.45,2.73-2.52,3.81-1.07,1.07-2.35,1.91-3.81,2.52-1.47.6-3.06.91-4.78.91s-3.28-.3-4.75-.91c-1.47-.61-2.74-1.44-3.81-2.52s-1.91-2.34-2.52-3.81c-.61-1.46-.91-3.05-.91-4.74ZM379.53,734.86c-1.14,0-2.22.22-3.24.67s-1.9,1.05-2.65,1.82c-.75.76-1.34,1.67-1.76,2.71-.42,1.04-.63,2.15-.63,3.34s.22,2.3.65,3.34,1.02,1.94,1.76,2.71c.74.76,1.62,1.37,2.64,1.82s2.1.67,3.24.67,2.25-.22,3.26-.67,1.89-1.05,2.64-1.82,1.35-1.67,1.78-2.71.65-2.15.65-3.34-.22-2.3-.65-3.34-1.03-1.94-1.78-2.71-1.63-1.37-2.64-1.82-2.09-.67-3.26-.67Z"/>
      <path class="cls-2" d="M417.7,731.9v13.98c0,.74-.02,1.42-.05,2.02-.03.61-.09,1.11-.18,1.51-.19.91-.54,1.74-1.04,2.47-.5.73-1.11,1.36-1.83,1.88-.72.52-1.54.92-2.47,1.19-.92.28-1.93.41-3.01.41-1.34,0-2.57-.21-3.7-.64-1.12-.42-2.07-1.04-2.83-1.85-.4-.43-.74-.85-1.02-1.29-.28-.43-.49-.92-.65-1.45-.16-.53-.27-1.14-.33-1.83-.06-.69-.1-1.5-.1-2.44v-13.98h3.7v13.61c0,.62,0,1.14.03,1.57.02.43.05.8.1,1.1.17,1.17.68,2.08,1.54,2.75s1.94,1,3.23,1c.81,0,1.54-.13,2.2-.4s1.2-.64,1.62-1.13c.23-.25.42-.52.57-.79.15-.28.27-.59.35-.95s.14-.79.18-1.29.05-1.12.05-1.86v-13.61h3.63Z"/>
      <path class="cls-2" d="M425.68,750.97l2.23-2.39c1.53,2.38,3.36,3.57,5.51,3.57.57,0,1.1-.1,1.59-.29.49-.19.92-.46,1.29-.8.37-.34.66-.74.88-1.19.21-.46.32-.94.32-1.45,0-.91-.35-1.64-1.05-2.17-.34-.23-.78-.48-1.3-.75-.53-.27-1.25-.58-2.17-.94-.68-.25-1.23-.47-1.64-.65-.41-.18-.76-.34-1.05-.49-.29-.15-.54-.3-.75-.45-.21-.15-.44-.33-.7-.54-.62-.53-1.08-1.17-1.4-1.91-.32-.74-.48-1.54-.48-2.39,0-.96.18-1.84.54-2.64.36-.81.86-1.51,1.5-2.1s1.39-1.06,2.26-1.39c.87-.33,1.83-.49,2.87-.49,1.46,0,2.74.29,3.82.88s2.03,1.48,2.83,2.69l-2.39,2.07c-1.1-1.72-2.5-2.58-4.2-2.58-1,0-1.82.3-2.47.89-.65.59-.97,1.35-.97,2.26,0,.36.07.71.2,1.05.14.34.33.63.59.86.15.15.3.28.46.4.16.12.36.23.6.35.24.12.55.25.92.4.37.15.85.34,1.44.57.99.38,1.79.74,2.4,1.07.6.33,1.15.68,1.64,1.04.7.55,1.24,1.22,1.62,2.01.38.79.57,1.64.57,2.58,0,1.06-.19,2.04-.57,2.93s-.92,1.66-1.61,2.31-1.52,1.15-2.49,1.51c-.96.36-2.02.54-3.17.54-1.72,0-3.2-.36-4.44-1.07-1.24-.71-2.32-1.81-3.23-3.3Z"/>
      <path class="cls-2" d="M447.59,754.86l9.14-22.96h3.41l9.17,22.96h-3.89l-2.2-5.7h-9.55l-2.2,5.7h-3.89ZM457.82,738.17l-2.99,8.06h7.29l-3.02-8.06c-.08-.21-.15-.41-.21-.61s-.1-.38-.14-.57c-.08-.3-.14-.57-.18-.81-.03-.24-.07-.59-.11-1.03-.04.45-.08.79-.11,1.03-.03.25-.08.52-.14.81-.08.36-.21.75-.38,1.18Z"/>
      <path class="cls-2" d="M476.44,754.86v-22.96h6.08c1.51,0,2.86.15,4.05.45,1.21.32,2.31.82,3.29,1.5.99.68,1.84,1.5,2.55,2.45.71.96,1.26,2.03,1.64,3.23.38,1.2.57,2.47.57,3.81,0,1.7-.28,3.25-.85,4.66s-1.34,2.63-2.34,3.65c-1,1.02-2.19,1.81-3.58,2.37-1.39.56-2.92.84-4.6.84h-6.81ZM480.14,735.18v16.43h3.18c1.1,0,2.13-.21,3.07-.62.94-.41,1.76-.99,2.45-1.72.69-.73,1.23-1.6,1.61-2.61.38-1.01.57-2.11.57-3.3s-.2-2.28-.61-3.28c-.4-1-.97-1.86-1.69-2.59-.72-.73-1.58-1.3-2.56-1.7s-2.06-.61-3.23-.61h-2.8Z"/>
      <path class="cls-2" d="M500.8,754.86l9.14-22.96h3.41l9.17,22.96h-3.89l-2.2-5.7h-9.55l-2.2,5.7h-3.89ZM511.02,738.17l-2.99,8.06h7.29l-3.02-8.06c-.08-.21-.15-.41-.21-.61s-.1-.38-.14-.57c-.08-.3-.14-.57-.18-.81-.03-.24-.07-.59-.11-1.03-.04.45-.08.79-.11,1.03-.03.25-.08.52-.14.81-.08.36-.21.75-.38,1.18Z"/>
      <path class="cls-2" d="M545.25,754.86v-22.96h5.81c.68,0,1.23.02,1.67.05.43.03.8.07,1.1.11.72.13,1.38.36,1.98.7.61.34,1.12.76,1.54,1.27.42.51.76,1.08,1,1.72.24.64.37,1.32.37,2.04,0,2.21-.95,3.77-2.84,4.68,1.52.3,2.69.95,3.5,1.94.81,1,1.22,2.27,1.22,3.82,0,2.06-.75,3.73-2.26,5-.68.59-1.42,1.01-2.21,1.26-.8.25-1.79.37-2.97.37h-7.91ZM548.95,734.96v6.5h2.39c1.21,0,2.16-.28,2.84-.84s1.02-1.36,1.02-2.41c0-2.16-1.38-3.25-4.14-3.25h-2.1ZM548.95,744.51v7.29h3.42c1.46,0,2.59-.32,3.39-.96.8-.64,1.2-1.54,1.2-2.71,0-.89-.27-1.66-.81-2.29-.54-.64-1.28-1.04-2.21-1.21-.25-.04-.54-.07-.86-.1-.32-.02-.66-.03-1.02-.03h-3.14Z"/>
      <path class="cls-2" d="M568.63,743.39c0-1.7.3-3.27.91-4.73.61-1.45,1.44-2.72,2.52-3.79,1.07-1.07,2.34-1.92,3.81-2.53,1.47-.62,3.05-.92,4.75-.92s3.32.31,4.78.92c1.47.62,2.74,1.46,3.81,2.53,1.07,1.07,1.91,2.34,2.52,3.79s.91,3.03.91,4.73-.3,3.28-.91,4.74c-.61,1.47-1.45,2.73-2.52,3.81-1.07,1.07-2.35,1.91-3.81,2.52-1.47.6-3.06.91-4.78.91s-3.28-.3-4.75-.91c-1.47-.61-2.74-1.44-3.81-2.52s-1.91-2.34-2.52-3.81c-.61-1.46-.91-3.05-.91-4.74ZM580.62,734.86c-1.14,0-2.22.22-3.24.67s-1.9,1.05-2.65,1.82c-.75.76-1.34,1.67-1.76,2.71-.42,1.04-.63,2.15-.63,3.34s.22,2.3.65,3.34,1.02,1.94,1.76,2.71c.74.76,1.62,1.37,2.64,1.82s2.1.67,3.24.67,2.25-.22,3.26-.67,1.89-1.05,2.64-1.82,1.35-1.67,1.78-2.71.65-2.15.65-3.34-.22-2.3-.65-3.34-1.03-1.94-1.78-2.71-1.63-1.37-2.64-1.82-2.09-.67-3.26-.67Z"/>
      <path class="cls-2" d="M618.78,731.9v13.98c0,.74-.02,1.42-.05,2.02-.03.61-.09,1.11-.18,1.51-.19.91-.54,1.74-1.04,2.47-.5.73-1.11,1.36-1.83,1.88-.72.52-1.54.92-2.47,1.19-.92.28-1.93.41-3.01.41-1.34,0-2.57-.21-3.7-.64-1.12-.42-2.07-1.04-2.83-1.85-.4-.43-.74-.85-1.02-1.29-.28-.43-.49-.92-.65-1.45-.16-.53-.27-1.14-.33-1.83-.06-.69-.1-1.5-.1-2.44v-13.98h3.7v13.61c0,.62,0,1.14.03,1.57.02.43.05.8.1,1.1.17,1.17.68,2.08,1.54,2.75s1.94,1,3.23,1c.81,0,1.54-.13,2.2-.4s1.2-.64,1.62-1.13c.23-.25.42-.52.57-.79.15-.28.27-.59.35-.95s.14-.79.18-1.29.05-1.12.05-1.86v-13.61h3.63Z"/>
      <path class="cls-2" d="M626.32,735.27v-3.38h14.81v3.38h-5.54v19.58h-3.7v-19.58h-5.57Z"/>
      <path class="cls-2" d="M648.61,754.86v-22.96h3.7v22.96h-3.7Z"/>
      <path class="cls-2" d="M681.86,751.9l3.31,2.9-2.54,2.42-3.24-3.47c-.23.15-.45.27-.64.35-.19.09-.35.16-.48.22-.74.34-1.54.59-2.4.77-.86.17-1.75.25-2.69.25-1.72,0-3.3-.3-4.75-.91-1.45-.6-2.71-1.44-3.77-2.5-1.06-1.06-1.89-2.32-2.5-3.77-.61-1.45-.91-3.04-.91-4.76s.3-3.31.89-4.76c.59-1.45,1.43-2.71,2.5-3.77,1.07-1.06,2.33-1.89,3.78-2.5,1.45-.61,3.04-.91,4.75-.91s3.31.3,4.77.91c1.46.6,2.73,1.44,3.8,2.5,1.07,1.06,1.91,2.32,2.51,3.77.61,1.45.91,3.03.91,4.73,0,.83-.07,1.64-.22,2.42s-.37,1.55-.67,2.29c-.13.34-.26.65-.4.94-.14.29-.3.57-.48.86-.18.29-.4.59-.65.91s-.55.69-.89,1.11ZM673.2,734.89c-1.17,0-2.25.22-3.25.67-1,.44-1.87,1.05-2.61,1.81-.74.76-1.33,1.66-1.75,2.7-.43,1.04-.64,2.15-.64,3.33s.21,2.29.64,3.33c.43,1.04,1.01,1.94,1.75,2.7.74.76,1.61,1.36,2.61,1.81,1,.44,2.07.67,3.21.67,1.21,0,2.32-.21,3.33-.63s1.88-1.02,2.63-1.78c.74-.76,1.32-1.67,1.73-2.71.41-1.05.62-2.18.62-3.41,0-1.16-.21-2.26-.64-3.3-.43-1.04-1.01-1.94-1.77-2.7-.75-.76-1.64-1.36-2.64-1.81-1.01-.44-2.09-.67-3.23-.67Z"/>
      <path class="cls-2" d="M711.35,731.9v13.98c0,.74-.02,1.42-.05,2.02-.03.61-.09,1.11-.18,1.51-.19.91-.54,1.74-1.04,2.47-.5.73-1.11,1.36-1.83,1.88-.72.52-1.54.92-2.47,1.19-.92.28-1.93.41-3.01.41-1.34,0-2.57-.21-3.7-.64-1.12-.42-2.07-1.04-2.83-1.85-.4-.43-.74-.85-1.02-1.29-.28-.43-.49-.92-.65-1.45-.16-.53-.27-1.14-.33-1.83-.06-.69-.1-1.5-.1-2.44v-13.98h3.7v13.61c0,.62,0,1.14.03,1.57.02.43.05.8.1,1.1.17,1.17.68,2.08,1.54,2.75s1.94,1,3.23,1c.81,0,1.54-.13,2.2-.4s1.2-.64,1.62-1.13c.23-.25.42-.52.57-.79.15-.28.27-.59.35-.95s.14-.79.18-1.29.05-1.12.05-1.86v-13.61h3.63Z"/>
      <path class="cls-2" d="M721.05,754.86v-22.96h12.29v3.06h-8.6v6.05h7.39v2.99h-7.39v7.8h8.98v3.06h-12.67Z"/>
    </g>
  </g>
</svg>